# xmcd
#
# Track frame offsets: 
#        150
#        24392
#        37882
#        56043
#        73890
#        98100
#        118025
#        135052
#        152837
#        175521
#        194008
#        209869
#        226946
#
# Disc length: 3193 seconds
#
# Revision: 0
# Processed by: cddbd v1.5.2PL0 Copyright (c) Steve Scherf et al.
# Submitted via: ExactAudioCopyFreeDBPlugin 1.0
#
DISCID=b10c770d
DTITLE=Karin Rudefelt and Doctor Blues - Out Of The Blues
DYEAR=2015
DGENRE=Blues
TTITLE0=Big And Mean Machine
TTITLE1=Life Is Such A Bore
TTITLE2=I Have To Be Strong
TTITLE3=Seven Seas
TTITLE4=Arabian Nights
TTITLE5=Peace At Last
TTITLE6=It Rains In Moscow
TTITLE7=Dying By The Hour
TTITLE8=Blind
TTITLE9=Love Child Running Wild
TTITLE10=Time For Revenge
TTITLE11=Tombs InTheir Eyes
TTITLE12=Can't Take It No More
EXTD=
EXTT0=
EXTT1=
EXTT2=
EXTT3=
EXTT4=
EXTT5=
EXTT6=
EXTT7=
EXTT8=
EXTT9=
EXTT10=
EXTT11=
EXTT12=
PLAYORDER=
